Coordinates
version=1
nRows=4
nColumns=63
inDegrees=yes

Units are S.I. units (second, meters, Newtons, ...)
If the header above contains a line with 'inDegrees', this indicates whether rotational values are in degrees (yes) or radians (no).

endheader
time	pelvis_tilt	pelvis_list	pelvis_rotation	pelvis_tx	pelvis_ty	pelvis_tz	hip_flexion_r	hip_adduction_r	hip_rotation_r	knee_angle_r	knee_angle_r_beta	ankle_angle_r	subtalar_angle_r	mtp_angle_r	hip_flexion_l	hip_adduction_l	hip_rotation_l	knee_angle_l	knee_angle_l_beta	ankle_angle_l	subtalar_angle_l	mtp_angle_l	L5_S1_Flex_Ext	L5_S1_Lat_Bending	L5_S1_axial_rotation	L4_L5_Flex_Ext	L4_L5_Lat_Bending	L4_L5_axial_rotation	L3_L4_Flex_Ext	L3_L4_Lat_Bending	L3_L4_axial_rotation	L2_L3_Flex_Ext	L2_L3_Lat_Bending	L2_L3_axial_rotation	L1_L2_Flex_Ext	L1_L2_Lat_Bending	L1_L2_axial_rotation	L1_T12_Flex_Ext	L1_T12_Lat_Bending	L1_T12_axial_rotation	Abs_r3	Abs_r2	Abs_r1	Abs_t1	Abs_t2	neck_flexion	neck_bending	neck_rotation	arm_flex_r	arm_add_r	arm_rot_r	elbow_flex_r	pro_sup_r	wrist_flex_r	wrist_dev_r	arm_flex_l	arm_add_l	arm_rot_l	elbow_flex_l	pro_sup_l	wrist_flex_l	wrist_dev_l
      0.00000000	      4.74722064	     -4.86475926	     98.09301436	      0.12782444	      1.04389362	     -0.08697327	     -4.47945996	      3.81608690	      3.96959095	      3.52171349	      0.06146550	     26.26834758	    -17.23460935	      0.00000000	     -5.48969972	     -2.73993293	     11.79322825	      4.83091831	      0.08431543	     28.53625821	    -12.56311691	      0.00000000	      0.04538269	      0.10758958	      0.12389560	      0.08428020	      0.14309414	      0.13163907	      0.07455923	      0.26159331	      0.13163907	      0.05186788	      0.26159331	      0.10840865	      0.04214237	      0.21939667	      0.10066517	      0.02593167	      0.16665626	      0.09292170	      0.32416405	      1.21707486	      0.68907014	      0.00000000	      0.00000000	     21.34222572	     -2.93305603	     -2.03933780	      9.02836834	     -2.90505290	     50.62376942	     32.16810708	      3.76473505	    -17.95928743	     11.27002280	     19.11105739	     13.13192936	    184.73218653	      0.79392217	      6.80754612	     -4.15761678	    -11.36861229
      0.01666667	      4.56182549	     -5.01004905	     98.17583915	      0.12758171	      1.04393620	     -0.08781639	     -4.44807329	      3.59705613	      4.32169334	      3.57164009	      0.06233688	     26.25865599	    -17.30361450	      0.00000000	     -5.36505318	     -2.50523403	     12.92582029	      4.61516912	      0.08054990	     29.49101893	    -11.95767000	      0.00000000	      0.06436602	      0.09268814	     -0.06970607	      0.11953413	      0.12327522	     -0.07406270	      0.10574693	      0.22536194	     -0.07406270	      0.07356392	      0.22536194	     -0.06099281	      0.05977028	      0.18900965	     -0.05663618	      0.03677874	      0.14357393	     -0.05227955	      0.45976002	      1.04850675	     -0.38768423	      0.00000000	      0.00000000	     21.60445518	     -2.67069284	     -0.97087157	      9.31451984	     -2.70874887	     51.25416379	     31.82406016	      3.58423594	    -18.94319898	     13.22902950	     19.26183506	     12.82420816	    186.28182317	      0.80245628	      7.44157532	     -5.28043905	    -12.19582926
      0.03333333	      4.40802567	     -5.13155589	     98.34800123	      0.12724442	      1.04399562	     -0.08822699	     -4.40515293	      3.41581701	      4.40880614	      3.59980544	      0.06282846	     26.47290888	    -17.33250891	      0.00000000	     -5.22844825	     -2.31875095	     13.74559311	      4.48907748	      0.07834918	     30.07468984	    -11.51384610	      0.00000000	      0.07754238	      0.08099873	     -0.21587783	      0.14400395	      0.10772831	     -0.22937019	      0.12739437	      0.19694031	     -0.22937019	      0.08862319	      0.19694031	     -0.18889310	      0.07200585	      0.16517261	     -0.17540073	      0.04430772	      0.12546703	     -0.16190837	      0.55387746	      0.91627383	     -1.20064770	      0.00000000	      0.00000000	     21.82383365	     -2.48314622	     -0.04141856	      9.51185787	     -2.56570620	     51.72671097	     31.56383047	      3.53958558	    -19.52456523	     14.39816328	     19.36891647	     12.62676815	    187.66139537	      0.79669012	      7.66958021	     -6.24935096	    -12.64979424
      0.05000000	      4.35618920	     -5.19302957	     98.56042624	      0.12701053	      1.04409440	     -0.08834201	     -4.39842550	      3.35842521	      4.28028242	      3.57089692	      0.06232391	     26.83640423	    -17.21729244	      0.00000000	     -5.11397779	     -2.26046174	     14.20379684	      4.45950774	      0.07783309	     30.46135080	    -11.12373581	      0.00000000	      0.08224723	      0.07779610	     -0.30661889	      0.15274132	      0.10346881	     -0.32578257	      0.13512397	      0.18915343	     -0.32578257	      0.09400036	      0.18915343	     -0.26829153	      0.07637477	      0.15864180	     -0.24912785	      0.04699607	      0.12050616	     -0.22996417	      0.58748371	      0.88004502	     -1.70532229	      0.00000000	      0.00000000	     21.96282570	     -2.22675351	      0.64221650	      9.57344834	     -2.48917563	     51.84441209	     31.45046426	      3.61747806	    -19.76518936	     14.99323215	     19.48097326	     12.54807495	    190.41578105	      0.77810272	      6.22868376	     -7.11914767	    -12.65845785
